<svg xmlns="http://www.w3.org/2000/svg" viewBox="120 14.288 181 47.026"><defs><style>.a{fill:#fff;}.b{fill:#3cb054;}</style></defs><g transform="translate(120 14.288)"><rect class="a" width="30.126" height="30.126" transform="translate(8.45 8)"/><path class="b" d="M23.513,0A23.513,23.513,0,1,0,47.026,23.513,23.513,23.513,0,0,0,23.513,0ZM34.576,30.886a9.781,9.781,0,0,1-4.117,5.341c.087-.363.177-.729.245-1.1,1.267-7.072-1.134-15.582-12.874-20.282C27.17,20.23,30.939,29.811,26.583,36c-7.414,1.129-12.832-5-12.832-12.071V11.038C31.221,11.664,37.957,21.821,34.576,30.886Z"/><g transform="translate(50.988 14.784)"><path class="a" d="M1756.808,6438.39a6.253,6.253,0,0,0-5.16,2.392v-1.962h-3.6v23.362h3.6v-8.841a6.255,6.255,0,0,0,5.16,2.391c4.611,0,8.24-3.629,8.24-8.67S1761.418,6438.39,1756.808,6438.39Zm-.43,3.389c3.1,0,4.972,2.392,4.972,5.281s-1.875,5.281-4.972,5.281a5.291,5.291,0,0,1,0-10.562Z" transform="translate(-1748.052 -6438.39)"/><path class="a" d="M1811.691,6438.39c-4.851,0-8.206,3.511-8.206,8.67,0,5.23,3.475,8.67,8.429,8.67a9.927,9.927,0,0,0,6.778-2.322l-1.789-2.562a7.813,7.813,0,0,1-4.766,1.736,4.655,4.655,0,0,1-4.9-4.2h12.18a11.172,11.172,0,0,0,.068-1.342C1819.484,6441.9,1816.285,6438.39,1811.691,6438.39Zm-.069,3.2c2.288,0,3.785,1.5,4.18,4.06h-8.55C1807.614,6443.242,1809.059,6441.59,1811.623,6441.59Z" transform="translate(-1783.855 -6438.39)"/><path class="a" d="M1864.409,6438.39c-4.851,0-8.206,3.511-8.206,8.67,0,5.23,3.475,8.67,8.43,8.67a9.927,9.927,0,0,0,6.778-2.322l-1.789-2.562a7.811,7.811,0,0,1-4.765,1.736,4.655,4.655,0,0,1-4.9-4.2h12.18a11.119,11.119,0,0,0,.069-1.342C1872.2,6441.9,1869,6438.39,1864.409,6438.39Zm-.069,3.2c2.288,0,3.784,1.5,4.18,4.06h-8.55C1860.332,6443.242,1861.777,6441.59,1864.341,6441.59Z" transform="translate(-1817.939 -6438.39)"/><path class="a" d="M1920.769,6438.39a5.485,5.485,0,0,0-4.782,2.288v-1.859h-3.561V6455.3h3.6v-9.066c0-2.821,1.635-4.421,3.922-4.421a6.429,6.429,0,0,1,2.735.6l.86-3.561A7.187,7.187,0,0,0,1920.769,6438.39Z" transform="translate(-1854.975 -6438.39)"/><path class="a" d="M1956.763,6438.39a8.67,8.67,0,1,0,0,17.341,7.93,7.93,0,0,0,6.159-2.632l-2.219-2.477a6,6,0,0,1-4.043,1.72c-2.77,0-4.869-2.167-4.869-5.281s2.1-5.281,4.869-5.281a5.486,5.486,0,0,1,3.957,1.7l2.305-2.459A7.856,7.856,0,0,0,1956.763,6438.39Z" transform="translate(-1879.008 -6438.39)"/><path class="a" d="M2004.515,6438.39a8.673,8.673,0,1,0,8.877,8.67A8.554,8.554,0,0,0,2004.515,6438.39Zm0,3.389a5.283,5.283,0,1,1-5.161,5.281A5.062,5.062,0,0,1,2004.515,6441.779Z" transform="translate(-1910.199 -6438.39)"/><rect class="a" width="3.613" height="16.481" transform="translate(106.38 0.43)"/><path class="a" d="M2090.845,6438.39a5.89,5.89,0,0,0-5.058,2.443v-2.014h-3.578V6455.3h3.613v-9.134a4.084,4.084,0,0,1,4.267-4.354c2.425,0,3.836,1.549,3.836,4.319v9.168h3.613v-10.357A6.351,6.351,0,0,0,2090.845,6438.39Z" transform="translate(-1967.525 -6438.39)"/></g><g transform="translate(156.214 8)"><path class="a" d="M-1861.825,812.15c4.205.151,5.827,2.6,5.013,4.778a2.355,2.355,0,0,1-.991,1.286c.021-.087.042-.176.059-.265.3-1.7-.273-3.751-3.1-4.883,2.249,1.3,3.156,3.6,2.108,5.092a2.753,2.753,0,0,1-3.089-2.906Z" transform="translate(1861.825 -812.15)"/></g></g></svg>